<svg id="visual" viewBox="0 0 900 600" width="900" height="600" xmlns="http://www.w3.org/2000/svg" xmlns:xlink="http://www.w3.org/1999/xlink" version="1.1"><rect x="0" y="0" width="900" height="600" fill="#171C30"></rect><path d="M0 385L39 408L78 474L117 349L157 369L196 371L235 362L274 461L313 351L352 441L391 358L430 504L470 415L509 443L548 364L587 482L626 485L665 459L704 496L743 340L783 405L822 463L861 434L900 403L900 0L861 0L822 0L783 0L743 0L704 0L665 0L626 0L587 0L548 0L509 0L470 0L430 0L391 0L352 0L313 0L274 0L235 0L196 0L157 0L117 0L78 0L39 0L0 0Z" fill="#3c0097"></path><path d="M0 347L39 311L78 416L117 335L157 348L196 461L235 419L274 336L313 311L352 465L391 405L430 386L470 448L509 331L548 378L587 376L626 351L665 313L704 330L743 454L783 336L822 358L861 392L900 376L900 0L861 0L822 0L783 0L743 0L704 0L665 0L626 0L587 0L548 0L509 0L470 0L430 0L391 0L352 0L313 0L274 0L235 0L196 0L157 0L117 0L78 0L39 0L0 0Z" fill="#2e0f8f"></path><path d="M0 388L39 415L78 331L117 348L157 339L196 353L235 307L274 363L313 345L352 305L391 395L430 383L470 326L509 362L548 411L587 371L626 329L665 351L704 380L743 418L783 380L822 349L861 329L900 365L900 0L861 0L822 0L783 0L743 0L704 0L665 0L626 0L587 0L548 0L509 0L470 0L430 0L391 0L352 0L313 0L274 0L235 0L196 0L157 0L117 0L78 0L39 0L0 0Z" fill="#211686"></path><path d="M0 306L39 379L78 280L117 280L157 387L196 307L235 286L274 367L313 296L352 294L391 279L430 312L470 304L509 372L548 389L587 257L626 336L665 369L704 259L743 358L783 267L822 268L861 314L900 324L900 0L861 0L822 0L783 0L743 0L704 0L665 0L626 0L587 0L548 0L509 0L470 0L430 0L391 0L352 0L313 0L274 0L235 0L196 0L157 0L117 0L78 0L39 0L0 0Z" fill="#151a7d"></path><path d="M0 260L39 320L78 316L117 266L157 290L196 307L235 294L274 291L313 301L352 301L391 318L430 337L470 255L509 287L548 277L587 249L626 252L665 331L704 262L743 331L783 312L822 228L861 248L900 244L900 0L861 0L822 0L783 0L743 0L704 0L665 0L626 0L587 0L548 0L509 0L470 0L430 0L391 0L352 0L313 0L274 0L235 0L196 0L157 0L117 0L78 0L39 0L0 0Z" fill="#091d73"></path><path d="M0 251L39 217L78 287L117 229L157 280L196 247L235 235L274 281L313 247L352 240L391 271L430 299L470 291L509 202L548 254L587 230L626 274L665 245L704 257L743 245L783 290L822 215L861 297L900 281L900 0L861 0L822 0L783 0L743 0L704 0L665 0L626 0L587 0L548 0L509 0L470 0L430 0L391 0L352 0L313 0L274 0L235 0L196 0L157 0L117 0L78 0L39 0L0 0Z" fill="#011e69"></path><path d="M0 256L39 231L78 259L117 265L157 180L196 238L235 257L274 211L313 225L352 216L391 238L430 256L470 187L509 261L548 202L587 214L626 176L665 205L704 268L743 194L783 186L822 266L861 206L900 262L900 0L861 0L822 0L783 0L743 0L704 0L665 0L626 0L587 0L548 0L509 0L470 0L430 0L391 0L352 0L313 0L274 0L235 0L196 0L157 0L117 0L78 0L39 0L0 0Z" fill="#001e5f"></path><path d="M0 172L39 146L78 218L117 164L157 183L196 198L235 228L274 140L313 223L352 217L391 206L430 228L470 149L509 167L548 227L587 203L626 187L665 220L704 195L743 141L783 201L822 182L861 188L900 225L900 0L861 0L822 0L783 0L743 0L704 0L665 0L626 0L587 0L548 0L509 0L470 0L430 0L391 0L352 0L313 0L274 0L235 0L196 0L157 0L117 0L78 0L39 0L0 0Z" fill="#001d53"></path><path d="M0 162L39 187L78 110L117 161L157 170L196 185L235 132L274 115L313 179L352 169L391 147L430 176L470 129L509 180L548 134L587 142L626 117L665 172L704 174L743 119L783 128L822 110L861 179L900 129L900 0L861 0L822 0L783 0L743 0L704 0L665 0L626 0L587 0L548 0L509 0L470 0L430 0L391 0L352 0L313 0L274 0L235 0L196 0L157 0L117 0L78 0L39 0L0 0Z" fill="#001b47"></path><path d="M0 135L39 144L78 115L117 106L157 144L196 147L235 146L274 84L313 119L352 118L391 92L430 95L470 136L509 100L548 135L587 146L626 97L665 137L704 103L743 96L783 148L822 87L861 138L900 99L900 0L861 0L822 0L783 0L743 0L704 0L665 0L626 0L587 0L548 0L509 0L470 0L430 0L391 0L352 0L313 0L274 0L235 0L196 0L157 0L117 0L78 0L39 0L0 0Z" fill="#00193b"></path><path d="M0 66L39 65L78 54L117 83L157 75L196 86L235 101L274 91L313 59L352 80L391 55L430 85L470 80L509 78L548 67L587 102L626 77L665 62L704 76L743 90L783 81L822 68L861 89L900 80L900 0L861 0L822 0L783 0L743 0L704 0L665 0L626 0L587 0L548 0L509 0L470 0L430 0L391 0L352 0L313 0L274 0L235 0L196 0L157 0L117 0L78 0L39 0L0 0Z" fill="#00152e"></path><path d="M0 30L39 49L78 32L117 64L157 29L196 35L235 27L274 55L313 50L352 26L391 41L430 65L470 42L509 25L548 25L587 54L626 43L665 60L704 64L743 36L783 43L822 28L861 63L900 28L900 0L861 0L822 0L783 0L743 0L704 0L665 0L626 0L587 0L548 0L509 0L470 0L430 0L391 0L352 0L313 0L274 0L235 0L196 0L157 0L117 0L78 0L39 0L0 0Z" fill="#001122"></path></svg>